# xmcd
#
# Track frame offsets: 
#        150
#        14264
#        30659
#        48461
#        66604
#        83450
#        99569
#        119767
#        136810
#        153087
#
# Disc length: 2268 seconds
#
# Revision: 0
# Processed by: cddbd v1.5.1PL2 Copyright (c) Steve Scherf et al.
# Submitted via: ExactAudioCopy v0.95b2
#
DISCID=7d08da0a
DTITLE=Various Artist - Country Top 10 April 1999
DYEAR=1999
DGENRE=Country
TTITLE0=Kenny Chesney - How Forever Feels
TTITLE1=Lee Ann Womack - I'll Think Of A Reason Later
TTITLE2=Chad Brock - Ordinary Life
TTITLE3=Mark Wills - Wish You Were Here
TTITLE4=Alan Jackson - Gone Crazy
TTITLE5=Sawyer Brown - Drive Me Wild
TTITLE6=Tim McGraw - Please Remember Me
TTITLE7=Ty Herndon - Hands Of A Working Man
TTITLE8=Dixie Chicks - You Were Mine
TTITLE9=Collin Raye - Anyone Else
EXTD=
EXTT0=
EXTT1=
EXTT2=
EXTT3=
EXTT4=
EXTT5=
EXTT6=
EXTT7=
EXTT8=
EXTT9=
PLAYORDER=
